<svg width="24" height="24" viewBox="0 0 24 24" fill="none" xmlns="http://www.w3.org/2000/svg">
    <path fill-rule="evenodd" clip-rule="evenodd"
          d="M2 2L8 2L8 8L2 8L2 2ZM10 8H8V10L6 10L6 12L4 12L4 10H2L2 12H4L4 14L8 14V12L14 12L14 14L12 14H10V18H12V16L14 16V18H18V20H14V22H22V20H20V18H18V16H16V14H20V16L22 16V14L20 14V12L22 12V10H18V12H14V10H16V8L22 8V2L16 2V8L14 8V10L10 10V8ZM10 6V8L12 8V6L14 6L14 4V2L12 2V4L10 4L10 6ZM4 4L6 4V6L4 6L4 4ZM18 4L20 4V6L18 6V4ZM8 16L2 16L2 22H8L8 16ZM4 18H6V20H4L4 18ZM10 20H12V22H10V20Z"
          fill="#2F363D" fill-opacity="0.11"/>
    <mask id="mask0_25190_36164" style="mask-type:alpha" maskUnits="userSpaceOnUse" x="2" y="2" width="20" height="20">
        <path fill-rule="evenodd" clip-rule="evenodd"
              d="M2 2L8 2L8 8L2 8L2 2ZM10 8H8V10L6 10L6 12L4 12L4 10H2L2 12H4L4 14L8 14V12L14 12L14 14L12 14H10V18H12V16L14 16V18H18V20H14V22H22V20H20V18H18V16H16V14H20V16L22 16V14L20 14V12L22 12V10H18V12H14V10H16V8L22 8V2L16 2V8L14 8V10L10 10V8ZM10 6V8L12 8V6L14 6L14 4V2L12 2V4L10 4L10 6ZM4 4L6 4V6L4 6L4 4ZM18 4L20 4V6L18 6V4ZM8 16L2 16L2 22H8L8 16ZM4 18H6V20H4L4 18ZM10 20H12V22H10V20Z"
              fill="white"/>
    </mask>
    <g mask="url(#mask0_25190_36164)">
        <rect width="24" height="24" fill="#000"/>
    </g>
</svg>
