<svg width="20" height="20" viewBox="0 0 20 20" fill="none" xmlns="http://www.w3.org/2000/svg">
    <path d="M10 19.1666C13.6819 19.1666 16.6667 16.1819 16.6667 12.5C16.6667 7.49998 10 0.833313 10 0.833313C10 0.833313 3.33337 7.49998 3.33337 12.5C3.33337 16.1819 6.31814 19.1666 10 19.1666Z"
          fill="#FF3355"/>
    <path d="M6.01589 15.5206C5.72838 15.1612 5.78665 14.6368 6.14604 14.3493C6.50542 14.0618 7.02983 14.12 7.31734 14.4794C8.50259 15.961 10.6645 16.2012 12.146 15.0159C12.3441 14.8575 12.5241 14.6775 12.6826 14.4794C12.9701 14.12 13.4945 14.0618 13.8539 14.3493C14.2132 14.6368 14.2715 15.1612 13.984 15.5206C13.7486 15.8148 13.4814 16.082 13.1872 16.3174C10.9869 18.0776 7.77616 17.7209 6.01589 15.5206Z"
          fill="white"/>
</svg>
